<svg version="1.2" xmlns="http://www.w3.org/2000/svg" viewBox="529 779 937 428" width="937" height="428">
	<defs>
		<linearGradient id="g1" x2="1" gradientUnits="userSpaceOnUse" gradientTransform="matrix(680.238,380.379,-734.677,920.698,768.86,783.959)">
			<stop offset="0" stop-color="#ffffff"/>
			<stop offset="1" stop-color="#0049ff"/>
		</linearGradient>
		<linearGradient id="g2" x2="1" gradientUnits="userSpaceOnUse" gradientTransform="matrix(680.022,380.258,-663.954,832.068,807.163,723.644)">
			<stop offset="0" stop-color="#ffffff"/>
			<stop offset="1" stop-color="#0049ff"/>
		</linearGradient>
		<linearGradient id="g3" x2="1" gradientUnits="userSpaceOnUse" gradientTransform="matrix(612.446,342.47,-556.432,697.322,840.69,652.278)">
			<stop offset="0" stop-color="#ffffff"/>
			<stop offset="1" stop-color="#0049ff"/>
		</linearGradient>
		<linearGradient id="g4" x2="1" gradientUnits="userSpaceOnUse" gradientTransform="matrix(615.717,344.3,-632.108,792.159,893.784,579.769)">
			<stop offset="0" stop-color="#ffffff"/>
			<stop offset="1" stop-color="#0049ff"/>
		</linearGradient>
		<linearGradient id="g5" x2="1" gradientUnits="userSpaceOnUse" gradientTransform="matrix(618.347,345.77,-665.282,833.732,939.346,513.722)">
			<stop offset="0" stop-color="#ffffff"/>
			<stop offset="1" stop-color="#0049ff"/>
		</linearGradient>
		<linearGradient id="g6" x2="1" gradientUnits="userSpaceOnUse" gradientTransform="matrix(680.238,380.379,-734.673,920.694,627.533,937.472)">
			<stop offset="0" stop-color="#ffffff"/>
			<stop offset="1" stop-color="#0049ff"/>
		</linearGradient>
		<linearGradient id="g7" x2="1" gradientUnits="userSpaceOnUse" gradientTransform="matrix(607.114,339.489,-493.546,618.513,668.356,877.81)">
			<stop offset="0" stop-color="#ffffff"/>
			<stop offset="1" stop-color="#0049ff"/>
		</linearGradient>
		<linearGradient id="g8" x2="1" gradientUnits="userSpaceOnUse" gradientTransform="matrix(617.372,345.225,-664.392,832.617,723.894,805.16)">
			<stop offset="0" stop-color="#ffffff"/>
			<stop offset="1" stop-color="#0049ff"/>
		</linearGradient>
		<linearGradient id="g9" x2="1" gradientUnits="userSpaceOnUse" gradientTransform="matrix(618.355,345.775,-665.45,833.943,755.024,735.742)">
			<stop offset="0" stop-color="#ffffff"/>
			<stop offset="1" stop-color="#0049ff"/>
		</linearGradient>
		<linearGradient id="g10" x2="1" gradientUnits="userSpaceOnUse" gradientTransform="matrix(616.447,344.708,-636.768,797.999,817.412,681.437)">
			<stop offset="0" stop-color="#ffffff"/>
			<stop offset="1" stop-color="#0049ff"/>
		</linearGradient>
	</defs>
	<style>
		tspan { white-space:pre } 
		.s0 { fill: url(#g1);stroke: #000000;stroke-linecap: round;stroke-linejoin: round;stroke-width: 2 } 
		.s1 { fill: url(#g2);stroke: #000000;stroke-linecap: round;stroke-linejoin: round;stroke-width: 2 } 
		.s2 { fill: url(#g3);stroke: #000000;stroke-linecap: round;stroke-linejoin: round;stroke-width: 2 } 
		.s3 { fill: url(#g4);stroke: #000000;stroke-linecap: round;stroke-linejoin: round;stroke-width: 2 } 
		.s4 { fill: url(#g5);stroke: #000000;stroke-linecap: round;stroke-linejoin: round;stroke-width: 2 } 
		.s5 { fill: url(#g6);stroke: #000000;stroke-linecap: round;stroke-linejoin: round;stroke-width: 2 } 
		.s6 { fill: url(#g7);stroke: #000000;stroke-linecap: round;stroke-linejoin: round;stroke-width: 2 } 
		.s7 { fill: url(#g8);stroke: #000000;stroke-linecap: round;stroke-linejoin: round;stroke-width: 2 } 
		.s8 { fill: url(#g9);stroke: #000000;stroke-linecap: round;stroke-linejoin: round;stroke-width: 2 } 
		.s9 { fill: url(#g10);stroke: #000000;stroke-linecap: round;stroke-linejoin: round;stroke-width: 2 } 
		.s10 { fill: #000000 } 
		.s11 { fill: #ffffff;stroke: #000000;stroke-linecap: round;stroke-linejoin: round;stroke-width: 2 } 
	</style>
	<g id="Layer 1">
		<g id="&lt;Group&gt;">
			<g id="&lt;Group&gt;">
				<g id="&lt;Group&gt;">
					<path id="&lt;Compound Path&gt;" class="s0" d="m659.21 834.9q6.1-8.05 13.91-13.95 7.8-5.89 17.01-9.41 9.2-3.51 18.31-3.51h82.64l-12.19 38.1h-23.9l4.5-14.06h-58.74q-8.42 0-16.22 5.86-7.79 5.86-10.46 14.19l-5.33 16.68h102.9l-13.06 40.82q-2.9 9.07-9.01 17.12-6.1 8.05-13.91 13.95-7.81 5.9-17.01 9.41-9.21 3.51-18.31 3.51h-82.64l12.41-38.77h23.9l-4.71 14.73h58.73q8.42 0.01 16.22-5.86 7.79-5.85 10.46-14.19l5.33-16.68h-102.9l13.06-40.82q2.9-9.07 9.01-17.12z"/>
					<path id="&lt;Compound Path&gt;" class="s1" d="m924.68 811.43q6.76 3.4 10.72 9.18 3.95 5.79 4.86 13.61 0.92 7.82-1.91 16.67l-6.46 20.18q-2.83 8.84-8.75 16.67-5.91 7.82-13.57 13.6-7.65 5.79-16.6 9.19-8.94 3.4-17.82 3.4h-58.99l7.69-24.04h58.99q3.87 0 7.87-1.46 3.99-1.46 7.44-4.05 3.44-2.59 6.01-5.96 2.56-3.38 3.85-7.43l6.41-20.02q2.51-7.87-1.3-13.39-3.81-5.51-11.78-5.51h-73.33l-18.61 58.16-7.6 23.77-12.68 39.61h-23.9l46.57-145.58h97.24q8.88 0 15.65 3.4z"/>
					<path id="&lt;Compound Path&gt;" class="s2" d="m967.93 834.9q6.1-8.05 13.91-13.95 7.8-5.89 17.01-9.41 9.21-3.51 18.31-3.51h106.58l-19.44 60.77-7.69 24.04-19.45 60.77h-23.9l19.44-60.77h-89.04l7.69-24.04h89.04l11.75-36.73h-82.66q-8.43 0-16.23 5.88-7.8 5.89-10.48 14.26l-32.44 101.4h-23.9l32.5-101.59q2.9-9.07 9-17.12z"/>
					<path id="&lt;Compound Path&gt;" class="s3" d="m1150.15 834.56q5.95-7.93 13.76-13.83 7.8-5.9 16.86-9.3 9.06-3.4 17.93-3.4h89.92l-7.69 24.04h-89.91q-4.1 0-8.14 1.58-4.04 1.58-7.48 4.17-3.45 2.6-6.16 6.1-2.71 3.5-4.01 7.56l-18.78 58.68q-1.3 4.07-0.82 7.57 0.47 3.5 2.26 6.09 1.78 2.6 4.81 4.18 3.02 1.58 7.12 1.57h89.92l-7.69 24.04h-89.92q-8.88 0-15.76-3.4-6.88-3.4-10.91-9.3-4.03-5.89-4.91-13.83-0.87-7.94 1.96-16.78l18.86-58.96q2.83-8.84 8.78-16.78z"/>
					<path id="&lt;Compound Path&gt;" class="s4" d="m1313.04 834.9q6.1-8.05 13.91-13.95 7.8-5.89 17.01-9.41 9.21-3.51 18.31-3.51h83.13l-7.69 24.04h-83.13q-8.42 0-16.21 5.86-7.8 5.86-10.46 14.19l-5.34 16.68h89.73l-7.69 24.04h-89.73l-11.75 36.73h103.39l-7.69 24.04h-127.29l19.44-60.77 7.69-24.04 5.37-16.78q2.9-9.07 9-17.12z"/>
					<path id="&lt;Compound Path&gt;" class="s5" d="m596.11 1032.16q6.1-8.05 13.9-13.95 7.81-5.89 17.02-9.41 9.2-3.52 18.31-3.52h82.64l-12.19 38.1h-23.9l4.49-14.06h-58.73q-8.43 0-16.22 5.86-7.79 5.86-10.46 14.2l-5.33 16.68h102.89l-13.05 40.81q-2.91 9.08-9.01 17.13-6.11 8.05-13.91 13.94-7.81 5.9-17.01 9.41-9.21 3.52-18.31 3.52h-82.64l12.41-38.78h23.9l-4.71 14.74h58.73q8.42 0 16.22-5.86 7.79-5.86 10.46-14.2l5.33-16.68h-102.9l13.06-40.81q2.9-9.07 9.01-17.12z"/>
					<path id="&lt;Compound Path&gt;" class="s6" d="m856.97 1108.01q-2.68 8.39-7.66 15.42l21.27 27.44h-35.51l-6.65-8.39q-6.48 3.85-13.53 6.01-7.07 2.15-14.35 2.15h-55.55q-8.88 0-15.68-3.29-6.8-3.28-10.76-9.07-3.95-5.78-4.75-13.6-0.8-7.83 2.03-16.67l19.22-60.09q2.83-8.85 8.6-16.56 5.76-7.71 13.42-13.49 7.66-5.78 16.6-9.18 8.94-3.41 17.82-3.41h55.55q8.87 0 15.53 3.41 6.65 3.4 10.6 9.18 3.96 5.78 4.91 13.49 0.95 7.71-1.88 16.56zm-48.75 18.59q3.64 0 7.26-1.35l-16.54-20.87h35.28l18.01-56.3q2.53-7.91-1.19-13.33-3.73-5.43-11.7-5.43h-55.55q-7.97 0-15.16 5.42-7.2 5.42-9.72 13.31l-19.14 59.82q-2.53 7.9 1.2 13.31 3.73 5.42 11.7 5.42z"/>
					<path id="&lt;Compound Path&gt;" class="s7" d="m1037.58 1005.28h23.9l-32.64 102.05q-2.9 9.07-8.86 17-5.95 7.94-13.76 13.84-7.81 5.9-16.86 9.29-9.06 3.41-18.16 3.41h-83.55l46.57-145.59h23.91l-38.88 121.55h59.64q8.19 0 15.85-5.77 7.65-5.77 10.25-13.92z"/>
					<path id="&lt;Compound Path&gt;" class="s8" d="m1084.43 1032.16q6.1-8.05 13.91-13.95 7.8-5.89 17.01-9.41 9.2-3.52 18.31-3.52h83.09l-19.44 60.78-7.69 24.03-19.44 60.78h-23.9l19.44-60.78h-65.56l7.69-24.03h65.56l11.75-36.74h-59.19q-8.42 0-16.22 5.89-7.81 5.88-10.48 14.25l-32.44 101.41h-23.91l32.5-101.59q2.9-9.07 9.01-17.12z"/>
					<path id="&lt;Compound Path&gt;" class="s9" d="m1370.38 1033.06q-0.05-0.63-0.13-1.24-0.8-6.4-3.77-11.47-0.68-1.22-1.51-2.37-4.27-5.88-11.46-9.3-7.2-3.39-16.43-3.39h-87.37l-46.57 145.57h87.36q9.24 0 18.62-3.4 9.36-3.39 17.4-9.29 8.05-5.89 14.14-13.84 6.09-7.93 8.91-16.78l18.86-58.95q2.62-8.15 1.95-15.54zm-134.69 93.77l31.2-97.51h62.5q4.26 0 7.43 1.58 3.15 1.58 5.05 4.18 1.9 2.59 2.3 6.09 0.44 3.5-0.87 7.57l-18.77 58.67q-1.3 4.08-3.97 7.56-2.65 3.51-6.2 6.11-3.56 2.59-7.72 4.17-4.19 1.59-8.45 1.58z"/>
				</g>
				<g id="&lt;Group&gt;" style="opacity: .3">
					<path id="&lt;Path&gt;" class="s10" d="m1361.56 1070.07l-7.51 23.48c-12.13 10.25-25.46 20.9-39.61 31.59-12.21 9.24-24.22 17.86-35.72 25.72h-23.22c11.04-7.14 22.86-15.21 35.07-24.03q8.21-5.91 16.63-12.28c6.89-5.19 13.58-10.39 20.01-15.52 10.86-8.66 20.98-17.15 30.17-25.25q2.13-1.86 4.18-3.71z"/>
				</g>
				<g id="&lt;Group&gt;">
					<path id="&lt;Path&gt;" class="s11" d="m1364.48 1006.3c2.52-7.89-1.84-14.27-9.76-14.27 7.92 0 16.37-6.39 18.89-14.27-2.52 7.88 1.85 14.27 9.76 14.27-7.91 0-16.37 6.38-18.89 14.27z"/>
				</g>
				<g id="&lt;Group&gt;">
					<path id="&lt;Path&gt;" class="s11" d="m1306.51 1088.03c2.52-7.88-1.85-14.27-9.76-14.27 7.91 0 16.36-6.39 18.88-14.27-2.52 7.88 1.85 14.27 9.76 14.27-7.91 0-16.36 6.39-18.88 14.27z"/>
				</g>
				<g id="&lt;Group&gt;">
					<path id="&lt;Path&gt;" class="s11" d="m1373.06 1098.94c1.26-3.94-0.92-7.13-4.88-7.13 3.96 0 8.18-3.2 9.45-7.14-1.27 3.94 0.92 7.14 4.88 7.14-3.96 0-8.19 3.19-9.45 7.13z"/>
				</g>
				<g id="&lt;Group&gt;">
					<path id="&lt;Path&gt;" class="s11" d="m1288.92 1111.02c1.26-3.95-0.92-7.14-4.88-7.14 3.96 0 8.19-3.19 9.45-7.13-1.26 3.94 0.92 7.13 4.88 7.13-3.96 0-8.19 3.19-9.45 7.14z"/>
				</g>
				<g id="&lt;Group&gt;">
					<path id="&lt;Path&gt;" class="s11" d="m1265.96 1182.79c2.09-6.54-1.53-11.84-8.1-11.84 6.57 0 13.59-5.3 15.68-11.85-2.09 6.55 1.53 11.85 8.1 11.85-6.57 0-13.59 5.3-15.68 11.84z"/>
				</g>
			</g>
			<path id="&lt;Path&gt;" class="s11" d="m1419.59 1003.44c-0.03-1.91-0.52-3.82-1.59-5.37-1.05-1.55-2.62-2.65-4.33-3.28-1.73-0.65-3.58-0.88-5.48-0.88-3.5 0.01-7.19 0.76-11.27 1.96-6.1 1.81-13.1 4.73-21.05 8.59q-7.42 3.62-15.84 8.31 2.83 2.31 4.94 5.21 0.83 1.15 1.51 2.37 0.82 1.41 1.47 2.92c6.76-3.68 12.88-6.72 18.14-9.03 4.28-1.87 8-3.27 10.98-4.15 2.97-0.89 5.19-1.22 6.33-1.21q0.16 0 0.29 0.01-0.04 0.13-0.09 0.29c-0.32 1.05-1.2 2.93-2.72 5.31-2.64 4.2-7.13 9.91-13.1 16.49-8.97 9.89-21.27 21.82-35.92 34.72-14.66 12.9-31.68 26.8-50.18 40.77-28.19 21.3-55.14 39.24-76.87 51.71-10.85 6.23-20.41 11.09-27.99 14.28-3.79 1.6-7.08 2.78-9.72 3.52-2.63 0.75-4.61 1.03-5.66 1.02q-0.16 0-0.29-0.01 0.03-0.13 0.08-0.29c0.22-0.68 0.66-1.71 1.36-2.99 1.22-2.26 3.24-5.28 5.97-8.78 3.9-5.02 9.25-11.05 15.76-17.73l8.27-25.87c-10.97 10.13-20.39 19.58-27.86 27.99-4.67 5.25-8.58 10.11-11.7 14.6q-2.34 3.37-4.07 6.53c-1.15 2.11-2.09 4.17-2.76 6.25-0.6 1.89-0.98 3.81-0.95 5.74 0.03 1.91 0.52 3.82 1.59 5.36 1.05 1.55 2.61 2.66 4.33 3.29 1.72 0.65 3.58 0.88 5.48 0.88 3.23-0.01 6.62-0.65 10.34-1.69 6.48-1.84 13.99-4.95 22.6-9.17 12.9-6.33 28.2-15.17 45.08-26.02 2.14-1.38 43.39-30.66 56.64-40.15q4.47-3.21 8.9-6.54c24.22-18.85 45.54-37.27 62.12-53.39 9.56-9.3 17.54-17.82 23.68-25.38q4.61-5.67 7.8-10.7c2.12-3.36 3.79-6.54 4.82-9.75 0.61-1.89 0.99-3.82 0.96-5.74z"/>
		</g>
	</g>
</svg>